<?xml version="1.0" standalone="no"?>
<!DOCTYPE svg PUBLIC "-//W3C//DTD SVG 20010904//EN"
 "http://www.w3.org/TR/2001/REC-SVG-20010904/DTD/svg10.dtd">
<svg version="1.0" xmlns="http://www.w3.org/2000/svg"
 width="1200.000000pt" height="1200.000000pt" viewBox="0 0 1200.000000 1200.000000"
 preserveAspectRatio="xMidYMid meet">
<metadata>
Created by potrace 1.11, written by Peter Selinger 2001-2013
</metadata>
<g transform="translate(0.000000,1200.000000) scale(0.100000,-0.100000)"
fill="#000000" stroke="none">
<path d="M5718 11995 c-1 -1 -55 -6 -118 -9 -131 -8 -146 -9 -340 -32 -55 -6
-188 -25 -215 -30 -10 -2 -37 -6 -60 -10 -22 -3 -71 -12 -110 -20 -38 -8 -86
-17 -105 -20 -27 -5 -372 -91 -470 -118 -101 -28 -469 -158 -560 -198 -14 -6
-34 -14 -45 -19 -21 -8 -91 -39 -195 -85 -71 -31 -271 -132 -390 -197 -106
-57 -368 -218 -480 -295 -106 -73 -232 -163 -240 -172 -3 -3 -32 -25 -64 -50
-69 -52 -68 -51 -211 -172 -393 -333 -754 -731 -1045 -1153 -38 -55 -73 -104
-77 -110 -5 -5 -12 -17 -16 -25 -4 -8 -32 -53 -62 -100 -153 -241 -339 -598
-458 -880 -5 -14 -11 -29 -13 -35 -1 -5 -16 -43 -33 -84 -17 -41 -31 -78 -31
-82 0 -5 -9 -28 -19 -52 -35 -76 -166 -505 -186 -606 -2 -9 -8 -34 -14 -56 -5
-22 -13 -55 -16 -74 -3 -19 -8 -37 -10 -41 -3 -4 -7 -22 -9 -41 -3 -19 -12
-70 -21 -113 -8 -44 -18 -93 -20 -110 -3 -17 -10 -56 -15 -86 -13 -79 -26
-182 -36 -285 -3 -38 -8 -78 -10 -87 -25 -136 -25 -860 0 -1093 3 -22 7 -67
11 -100 6 -66 7 -71 31 -235 9 -63 18 -124 19 -135 3 -17 15 -81 31 -165 6
-31 61 -266 79 -340 28 -117 159 -531 185 -585 5 -11 19 -45 30 -75 12 -30 27
-68 35 -85 7 -16 22 -52 33 -80 61 -155 213 -459 330 -660 99 -171 367 -576
401 -605 3 -3 28 -34 56 -70 27 -36 55 -71 62 -78 7 -8 26 -30 41 -50 15 -21
30 -39 33 -42 3 -3 34 -39 69 -80 144 -169 388 -415 571 -575 88 -76 168 -144
209 -175 25 -19 47 -37 50 -40 3 -4 32 -26 65 -51 33 -24 62 -46 65 -49 18
-19 286 -201 415 -282 298 -186 712 -391 1015 -503 41 -15 84 -31 95 -36 86
-37 397 -132 569 -175 242 -60 601 -128 728 -139 45 -3 136 -13 203 -21 158
-19 735 -26 935 -12 184 13 356 32 500 54 19 3 49 7 65 9 35 5 179 32 215 40
14 3 41 8 60 11 207 35 817 221 1025 313 34 15 88 38 125 54 158 65 537 256
612 308 14 11 28 19 31 19 23 0 495 314 597 397 8 7 53 42 100 79 47 36 101
80 120 98 20 17 65 56 100 86 233 197 565 544 760 795 30 39 57 72 60 75 3 3
35 46 70 95 36 50 67 92 70 95 7 6 137 203 202 305 137 216 326 583 441 855 5
14 11 30 13 35 1 6 16 43 33 84 17 41 31 78 31 82 0 5 9 28 19 52 32 69 138
408 171 547 25 102 52 217 56 235 2 11 6 31 9 45 10 45 31 162 49 262 11 64
29 202 41 313 3 28 8 68 10 90 28 251 27 835 0 1105 -3 25 -7 68 -10 95 -5 53
-14 124 -21 164 -2 13 -6 45 -10 70 -7 55 -10 74 -18 121 -3 19 -8 46 -10 60
-39 235 -173 743 -246 925 -4 11 -22 61 -40 110 -78 218 -246 582 -375 815
-113 202 -330 536 -432 665 -4 6 -21 28 -37 50 -32 43 -186 237 -195 245 -3 3
-24 25 -45 50 -173 200 -422 451 -596 600 -14 12 -36 31 -50 43 -77 68 -353
283 -420 327 -12 8 -28 20 -34 25 -30 27 -338 221 -471 297 -219 125 -475 252
-650 322 -38 16 -83 34 -100 42 -118 50 -453 164 -620 209 -79 21 -421 102
-460 108 -16 3 -73 12 -125 22 -170 29 -272 42 -470 60 -36 4 -85 9 -110 11
-51 6 -706 14 -712 9z"/>
</g>
</svg>
