<svg fill="none" height="25" viewBox="0 0 75 25" width="75" xmlns="http://www.w3.org/2000/svg" xmlns:xlink="http://www.w3.org/1999/xlink"><radialGradient id="a" cx="33.1993" cy="6.08937" gradientUnits="userSpaceOnUse" r="18.8227"><stop offset=".15625" stop-color="#dcc8d0"/><stop offset=".302083" stop-color="#78c8cf"/><stop offset=".427083" stop-color="#4d959e"/><stop offset=".557292" stop-color="#305eb9"/><stop offset=".796875" stop-color="#311f12"/><stop offset=".90625" stop-color="#684232"/><stop offset="1" stop-color="#2d1c13"/></radialGradient><path d="m69.0776 24.0382h5.4392v-21.31846c0-.00636 0-.00636 0-.01273 0-.03822 0-.08281 0-.12102 0-.02548-.0064-.04459-.0064-.07007 0-.01911 0-.04458-.0064-.06369 0-.02548-.0063-.05733-.0127-.0828 0-.01911-.0064-.03185-.0064-.05096-.0064-.03185-.0064-.05732-.0127-.08917 0-.01274-.0064-.02548-.0064-.04459-.0064-.03184-.0128-.05732-.0191-.08917-.0064-.01274-.0064-.02548-.0128-.04458-.0064-.02548-.0127-.05733-.0255-.08281-.0064-.01274-.0064-.03184-.0128-.04458-.0063-.02548-.0191-.05096-.0255-.07644-.0063-.0191-.0127-.03184-.0191-.05095-.0064-.02548-.0191-.04459-.0255-.07007-.0064-.0191-.0128-.03821-.0255-.05732-.0064-.01911-.0191-.03822-.0255-.05733-.0064-.0191-.0191-.04458-.0319-.06369-.0064-.01911-.0191-.03185-.0255-.05095-.0128-.02548-.0255-.04459-.0383-.07007-.0063-.01274-.0191-.03185-.0255-.04458-.0127-.02548-.0255-.05096-.0382-.07007-.0064-.01274-.0192-.02548-.0255-.03821-.0128-.02548-.0319-.05096-.0447-.07007-.0063-.01274-.0191-.02548-.0255-.03822-.0127-.02547-.0319-.04458-.051-.07006-.0127-.01274-.0255-.03185-.0319-.04458-.0127-.01911-.0319-.03822-.0446-.05733-.0191-.019108-.0319-.038216-.051-.057324-.0128-.012739-.0255-.025478-.0383-.044586-.0574-.063695-.1275-.127389-.1913-.191083-.0127-.012739-.0255-.025478-.0446-.038217-.0191-.019108-.0383-.031847-.0574-.050955-.0191-.012739-.0383-.031847-.0574-.044586-.0127-.012739-.0319-.025478-.0446-.031847-.0255-.019108-.0447-.031847-.0702-.050956-.0127-.006369-.0255-.019108-.0382-.025477-.0255-.012739-.0447-.031847-.0702-.044586-.0127-.00637-.0255-.019109-.0382-.025478-.0255-.012739-.0447-.025478-.0702-.038217-.0127-.006369-.0318-.019108-.0446-.025477-.0255-.012739-.0446-.025478-.0701-.038217-.0192-.006369-.0319-.019108-.0511-.025478-.0191-.012738-.0446-.019108-.0637-.025477-.0192-.00637-.0383-.019109-.0574-.025478s-.0383-.012739-.0574-.019108c-.0255-.00637-.0446-.019109-.0701-.025478-.0192-.006369-.0319-.012739-.0511-.019108-.0255-.00637-.051-.019108-.0765-.025478-.0127-.006369-.0319-.006369-.0446-.012739-.0255-.006369-.0574-.0127386-.0829-.0254775-.0128-.0063694-.0255-.0063694-.0383-.0063694-.0318-.0063694-.0574-.0127388-.0892-.0191083-.0128 0-.0255-.0063694-.0447-.0063694-.0319-.0063694-.0574-.0127388-.0892-.0127388-.0192 0-.0319-.0063695-.0511-.0063695-.0255-.0063694-.0573-.0063694-.0828-.0127388-.0192 0-.0447-.0063694-.0638-.0063694-.0255 0-.0447-.00636947-.0702-.00636947-.0382 0-.0829 0-.1211 0-.0064 0-.0064 0-.0128 0-.0063 0-.0063 0-.0127 0-.0383 0-.0829 0-.1212 0-.0255 0-.0446.00636947-.0701.00636947-.0191 0-.0447 0-.0638.0063694-.0255 0-.0574.0063694-.0829.0127388-.0191 0-.0319.0063695-.051.0063695-.0319.0063694-.0574.0063694-.0893.0127388-.0127 0-.0255.0063694-.0446.0063694-.0319.0063695-.0574.0127389-.0893.0191083-.0127.0063694-.0255.0063694-.0446.0127389-.0255.0063694-.0574.012739-.0829.025478-.0128.006369-.0319.006369-.0446.012739-.0255.006369-.0511.019108-.0766.025477-.0191.00637-.0318.012739-.051.019109-.0255.006369-.0446.019108-.0701.025477-.0191.00637-.0383.012739-.0574.025478-.0191.006369-.0383.019108-.0574.025478-.0191.006369-.0446.019108-.0638.031847-.0191.006369-.0318.019108-.051.025477-.0255.012739-.0446.025478-.0701.038217-.0128.006369-.0319.019108-.0446.025478-.0256.012739-.0511.025477-.0702.044586-.0127.006369-.0255.019108-.0382.025477-.0256.012739-.0511.031848-.0702.044586-.0127.00637-.0255.019109-.0382.025478-.0256.019108-.0447.031847-.0702.050956-.0127.012738-.0319.025477-.0446.031847-.0192.012739-.0383.031847-.0574.044586-.0191.019108-.0383.031847-.0574.050955-.0128.012739-.0255.025478-.0446.038217-.0319.031847-.0638.063694-.1021.095541l-17.4909 17.464944-2.6526-3.1465 2.8439-2.8407c1.0713-1.0701 1.7663-2.39494 2.015-3.84717.236-1.34395.0765-2.72612-.4527-4.00637-.5293-1.28026-1.3965-2.36943-2.5124-3.15287-1.2051-.84713-2.6462-1.29299-4.1575-1.29299h-18.6387c-1.5048 0-2.7227 1.21656-2.7227 2.71974 0 1.50319 1.2179 2.71975 2.7227 2.71975h18.6387c1.0713 0 1.5049.76433 1.6388 1.09554s.3698 1.17834-.3826 1.92994l-4.6103 4.60513c-1.0011 1-1.0648 2.5923-.153 3.6751l6.1534 7.2866c.5356.637 1.3072.9682 2.0787.9682h.0256.0191c.695 0 1.3901-.2675 1.9257-.7962l14.9339-14.91718z" fill="#fff"/><path d="m16.5014 0h-16.4251223-.0762777v1.35738 1.35738 1.36375 1.35738h.0762777 9.8843123c-2.41546 2.42162-4.82456 4.83681-7.24002 7.25851-.61658.6181-1.14417 1.3765-1.5192 2.2177-.375029.8411-.565723 1.7588-.597505 2.6701-.031783 1.4848.387745 2.9442 1.188655 4.1741.40046.6118.89627 1.1726 1.46835 1.6442.57844.4715 1.23315.8539 1.93237 1.1215.84541.3251 1.74167.478 2.60615.478h21.59291.0763v-1.3574-1.3574-1.3573-1.3638h-.0763-21.58655c-.25426 0-.47038-.0446-.66108-.1211-.15891-.0637-.31146-.1465-.44495-.2549-.13349-.1083-.26061-.2485-.36232-.4078-.20341-.3187-.31782-.7074-.31147-1.0643.00636-.0255.00636-.0509.00636-.0828 0-.0128 0-.0255 0-.0382l.00636-.0383c.00635-.0255.00635-.051.00635-.0765.00636-.0254.01272-.0509.01907-.0764.00636-.051.03179-.102.03814-.153.00636-.0255.01907-.051.02543-.0764.01271-.0255.01271-.051.03178-.0765.08899-.1912.20976-.376.38775-.5608 3.95373-3.9638 7.91383-7.93399 11.86753-11.89779.4894-.4907.7946-1.17258.7946-1.92455.0063-1.49758-1.2078-2.71476-2.7079-2.71476z" fill="#fff"/><path d="m16.9597 12.5c0 6.8935 5.6065 12.5 12.5 12.5 6.8934 0 12.5-5.6065 12.5-12.5-.0064-6.89348-5.6129-12.5-12.5-12.5-6.8935 0-12.5 5.60652-12.5 12.5z" fill="url(#a)"/></svg>