<svg width="20" height="20" viewBox="0 0 20 20" fill="none" xmlns="http://www.w3.org/2000/svg">
<g clip-path="url(#clip0)">
<path d="M7.60494 8.91016C7.07758 8.91016 6.66211 9.37233 6.66211 9.93667C6.66211 10.4991 7.08731 10.9632 7.60494 10.9632C8.13134 10.9632 8.5468 10.4991 8.5468 9.93667C8.55751 9.37136 8.13134 8.91016 7.60494 8.91016ZM10.9793 8.91016C10.4519 8.91016 10.0365 9.37233 10.0365 9.93667C10.0365 10.4991 10.4617 10.9632 10.9793 10.9632C11.5057 10.9632 11.9212 10.4991 11.9212 9.93667C11.9202 9.37136 11.5057 8.91016 10.9793 8.91016Z" fill="black"/>
<path d="M15.4716 1.1543H3.08437C2.83495 1.15493 2.5881 1.20469 2.35792 1.30073C2.12773 1.39677 1.91871 1.53721 1.74279 1.71402C1.56688 1.89084 1.42752 2.10058 1.33266 2.33125C1.2378 2.56193 1.18931 2.80903 1.18995 3.05845V15.5556C1.18995 16.6094 2.04035 17.4598 3.08437 17.4598H13.5665L13.0751 15.7483L14.2592 16.8487L15.3772 17.884L17.366 19.6412V3.05845C17.3667 2.80903 17.3182 2.56193 17.2233 2.33125C17.1284 2.10058 16.9891 1.89084 16.8132 1.71402C16.6373 1.53721 16.4282 1.39677 16.1981 1.30073C15.9679 1.20469 15.721 1.15493 15.4716 1.1543ZM11.9026 13.2263C11.9026 13.2263 11.5699 12.8293 11.2935 12.4761C12.504 12.1336 12.9661 11.3766 12.9661 11.3766C12.5867 11.6257 12.2267 11.8028 11.9026 11.9234C10.7231 12.4171 9.42406 12.5518 8.16828 12.3107C7.70426 12.2195 7.24959 12.086 6.80998 11.9117C6.57813 11.8237 6.3528 11.7193 6.13569 11.5994C6.10747 11.579 6.08023 11.5712 6.05299 11.5527C6.03841 11.5458 6.02548 11.5358 6.01504 11.5235C5.84866 11.4321 5.75622 11.3678 5.75622 11.3678C5.75622 11.3678 6.19991 12.1073 7.37431 12.4586C7.09701 12.8089 6.75452 13.2263 6.75452 13.2263C4.7122 13.1611 3.93672 11.8213 3.93672 11.8213C3.93672 8.84486 5.26778 6.4328 5.26778 6.4328C6.59884 5.43354 7.86471 5.46175 7.86471 5.46175L7.95714 5.57268C6.29332 6.05431 5.52562 6.78406 5.52562 6.78406C5.52562 6.78406 5.72995 6.67313 6.07147 6.51648C7.06004 6.08253 7.84525 5.96187 8.16925 5.93366C8.22471 5.9249 8.27142 5.91517 8.32688 5.91517C9.92961 5.69918 11.5593 6.00378 12.9759 6.78406C12.9759 6.78406 12.2451 6.09128 10.6737 5.61062L10.8032 5.46273C10.8032 5.46273 12.07 5.43451 13.4001 6.43378C13.4001 6.43378 14.7311 8.84584 14.7311 11.8222C14.7311 11.8213 13.9459 13.1611 11.9026 13.2263Z" fill="black"/>
</g>
<defs>
<clipPath id="clip0">
<rect width="19.1304" height="19.1304" fill="white" transform="translate(0.260742 0.433594)"/>
</clipPath>
</defs>
</svg>
