<svg width="20" height="20" viewBox="0 0 20 20" fill="none" xmlns="http://www.w3.org/2000/svg">
<path fill-rule="evenodd" clip-rule="evenodd" d="M13.6811 2.02734H5.71012C3.50898 2.02734 1.72461 3.81172 1.72461 6.01285V13.9839C1.72461 16.185 3.50898 17.9694 5.71012 17.9694H13.6811C15.8823 17.9694 17.6666 16.185 17.6666 13.9839V6.01285C17.6666 3.81172 15.8823 2.02734 13.6811 2.02734ZM10.0806 7.59913C9.58307 7.52535 9.07494 7.61033 8.62848 7.84199C8.18202 8.07365 7.81998 8.44018 7.59385 8.88946C7.36771 9.33874 7.289 9.84788 7.36891 10.3445C7.44882 10.8411 7.68328 11.2998 8.03894 11.6555C8.3946 12.0111 8.85335 12.2456 9.34994 12.3255C9.84653 12.4054 10.3557 12.3267 10.805 12.1006C11.2542 11.8744 11.6208 11.5124 11.8524 11.0659C12.0841 10.6195 12.1691 10.1113 12.0953 9.6138C12.02 9.10629 11.7835 8.63644 11.4208 8.27366C11.058 7.91087 10.5881 7.67438 10.0806 7.59913ZM7.89424 6.42694C8.63833 6.04084 9.48522 5.8992 10.3145 6.02217C11.1603 6.1476 11.9434 6.54174 12.548 7.14639C13.1527 7.75103 13.5468 8.53411 13.6722 9.37996C13.7952 10.2092 13.6536 11.0561 13.2675 11.8002C12.8814 12.5443 12.2705 13.1477 11.5217 13.5246C10.7729 13.9015 9.92432 14.0326 9.09667 13.8995C8.26901 13.7663 7.50443 13.3755 6.91166 12.7827C6.3189 12.19 5.92813 11.4254 5.79495 10.5977C5.66177 9.77009 5.79296 8.92152 6.16985 8.17272C6.54674 7.42392 7.15014 6.81303 7.89424 6.42694ZM14.0796 4.81765C13.6394 4.81765 13.2825 5.17453 13.2825 5.61475C13.2825 6.05498 13.6394 6.41185 14.0796 6.41185H14.0876C14.5278 6.41185 14.8847 6.05498 14.8847 5.61475C14.8847 5.17453 14.5278 4.81765 14.0876 4.81765H14.0796Z" fill="black"/>
</svg>
