<svg width="20" height="20" viewBox="0 0 20 20" fill="none" xmlns="http://www.w3.org/2000/svg">
<path d="M18.3331 2.82442C17.5698 3.36285 16.7246 3.77465 15.8302 4.04399C15.3501 3.492 14.7121 3.10077 14.0025 2.9232C13.2928 2.74564 12.5457 2.7903 11.8623 3.05116C11.1789 3.31202 10.592 3.77648 10.1811 4.38173C9.77026 4.98698 9.55518 5.70382 9.56499 6.43529V7.23239C8.16419 7.26872 6.77615 6.95804 5.52449 6.32804C4.27283 5.69804 3.1964 4.76826 2.39108 3.62152C2.39108 3.62152 -0.797328 10.7954 6.37658 13.9838C4.73498 15.0982 2.77939 15.6569 0.796875 15.578C7.97079 19.5636 16.7389 15.578 16.7389 6.41138C16.7382 6.18935 16.7168 5.96787 16.6751 5.74978C17.4887 4.9475 18.0627 3.93456 18.3331 2.82442Z" fill="black"/>
</svg>
